<svg width="42" height="42" viewBox="0 0 42 42" fill="none" xmlns="http://www.w3.org/2000/svg">
<path d="M38.7307 24.6422C38.6199 24.3196 38.4201 24.0349 38.1544 23.821C37.8887 23.6072 37.568 23.4727 37.2292 23.4333C36.8289 23.3852 36.4233 23.4079 36.0309 23.5003C35.4239 23.6344 34.8065 23.7156 34.1855 23.7431C35.8461 20.9414 37.1144 17.9252 37.955 14.7787C39.2058 9.9369 38.5378 7.7319 37.7568 6.73309C36.7198 5.42105 35.3925 4.36743 33.8794 3.65506C32.3663 2.94269 30.7086 2.59099 29.0366 2.62759C27.5027 2.61322 25.9753 2.82732 24.5045 3.26284C23.6285 3.11265 22.742 3.0319 21.8533 3.02134C20.2379 2.96001 18.6378 3.35434 17.2359 4.15928C16.1727 3.79981 15.0825 3.52593 13.9756 3.34028C12.6853 3.03074 11.3467 2.97853 10.0362 3.18662C8.72575 3.39471 7.46913 3.85903 6.3382 4.55303C4.06232 6.15953 3.00707 8.95253 3.20263 12.8546C3.55278 15.7656 4.17052 18.6381 5.04801 21.4357C5.55337 23.1832 6.21855 24.8804 7.03513 26.5059C7.6382 27.9887 8.78463 29.1854 10.2403 29.8515C10.7738 30.0273 11.3447 30.0572 11.8937 29.9381C12.4427 29.819 12.9499 29.5553 13.3627 29.1742C13.55 29.396 13.7716 29.5866 14.0189 29.7386C14.4023 29.9765 14.8203 30.1536 15.2579 30.2636C16.6905 30.6626 18.2154 30.5702 19.5892 30.0011C19.5971 30.2255 19.6036 30.4408 19.6076 30.6272C19.6154 30.9277 19.6246 31.223 19.6351 31.5C19.6196 32.964 19.8145 34.4227 20.2139 35.8312C20.2349 35.8877 20.2625 35.9717 20.2914 36.0622C20.5219 36.9243 20.9698 37.7129 21.5921 38.3525C22.3382 39.0376 23.3227 39.4037 24.3352 39.3723C24.7665 39.3696 25.1962 39.3217 25.6175 39.2293C26.4161 39.129 27.1865 38.8698 27.8833 38.467C28.58 38.0642 29.1891 37.5259 29.6744 36.8838C30.7389 35.3679 31.2573 33.0855 31.3505 29.4879C31.3623 29.3855 31.3741 29.2884 31.3846 29.1965L31.4069 29.0062L31.6576 29.0285H31.7219C33.1413 29.0886 34.557 28.8434 35.8734 28.3093C36.7016 27.9247 39.3568 26.523 38.7307 24.6343" fill="black"/>
<path d="M36.3408 25.0037C32.1893 25.8594 31.9045 24.4551 31.9045 24.4551C36.287 17.9516 38.1192 9.696 36.5376 7.67606C32.2248 2.16356 24.758 4.7715 24.6333 4.83844L24.5926 4.84631C23.6806 4.66328 22.7534 4.5666 21.8232 4.55756C20.2546 4.47886 18.7067 4.9423 17.4395 5.87006C17.4395 5.87006 4.12021 0.382499 4.73971 12.7712C4.87096 15.4067 8.51708 32.7133 12.8654 27.4856C14.4548 25.5746 15.9905 23.9576 15.9905 23.9576C16.7638 24.4796 17.6944 24.7171 18.6233 24.6296L18.6981 24.5666C18.6762 24.815 18.6863 25.0651 18.7283 25.3108C17.6075 26.5629 17.9408 26.7821 15.6978 27.2428C13.4324 27.7101 14.7633 28.5409 15.6321 28.7588C16.5553 29.0574 17.5492 29.0567 18.472 28.7569C19.3948 28.4571 20.1992 27.8735 20.7706 27.0893L20.705 27.3518C21.1433 27.7035 21.4518 29.6381 21.4006 31.3929C21.2574 32.6981 21.3463 34.0182 21.6631 35.2924C22.0096 36.2334 22.3535 38.3492 25.2974 37.7192C26.3443 37.6158 27.3179 37.1357 28.0374 36.3682C28.7568 35.6007 29.173 34.5981 29.2086 33.5468C29.3399 31.9271 29.6195 32.166 29.6365 30.7183L29.8649 30.0332C30.1274 27.8374 29.9069 27.1286 31.4215 27.4581L31.7903 27.4909C32.9622 27.5401 34.1313 27.3434 35.2225 26.9134C37.0679 26.0576 38.1612 24.627 36.3421 25.0037" fill="#EE9639"/>
<path d="M18.219 13.9506C17.9179 13.8872 17.6041 13.9338 17.3344 14.0819C17.2992 14.1071 17.2695 14.1392 17.247 14.1762C17.2244 14.2132 17.2095 14.2543 17.2031 14.2971C17.2031 14.4485 17.2577 14.5948 17.3567 14.7092C17.5328 14.9511 17.7958 15.1153 18.0904 15.1673C18.1295 15.1727 18.169 15.1753 18.2085 15.1752C18.4035 15.1777 18.5946 15.1203 18.7558 15.0106C18.9171 14.901 19.0408 14.7445 19.1102 14.5622C19.1561 14.2367 18.6823 14.0189 18.2229 13.9545M30.6156 13.965C30.5801 13.7091 30.1247 13.6369 29.6968 13.7025C29.2689 13.7682 28.8476 13.9572 28.8831 14.2131C28.9498 14.3737 29.0628 14.5107 29.2078 14.6068C29.3527 14.7029 29.5229 14.7536 29.6968 14.7525C29.7333 14.7525 29.7697 14.7498 29.8057 14.7447C30.0334 14.7047 30.2414 14.5907 30.3977 14.4205C30.5284 14.3057 30.6081 14.1438 30.6195 13.9703" fill="white"/>
<path d="M37.7263 24.9067C37.5675 24.4276 37.0583 24.2741 36.2117 24.4486C33.6983 24.9736 32.7992 24.6075 32.5026 24.3909C34.4929 21.3355 35.9871 17.9844 36.9296 14.4618C37.3111 13.0685 37.5313 11.6359 37.5859 10.1923C37.687 9.18247 37.4522 8.16752 36.9178 7.30476C35.9719 6.11425 34.7624 5.15967 33.3846 4.51625C32.0069 3.87282 30.4986 3.55812 28.9785 3.59695C27.4171 3.57252 25.8631 3.81716 24.3848 4.32014C23.5392 4.1115 22.6726 4.00009 21.8018 3.98808C20.235 3.91923 18.6864 4.34588 17.376 5.20739C16.2095 4.78091 15.0055 4.46539 13.7798 4.26502C11.4367 3.698 8.96458 4.07764 6.89964 5.32158C4.93089 6.71808 4.01214 9.21445 4.19457 12.7411C4.53933 15.5676 5.14255 18.3566 5.99664 21.0729C7.40101 25.6732 8.92745 28.2785 10.5339 28.8166C10.7416 28.8866 10.9592 28.9225 11.1784 28.923C11.5862 28.8977 11.9829 28.7798 12.3384 28.5784C12.6938 28.3769 12.9987 28.097 13.2298 27.7601C14.1416 26.6663 15.0844 25.5997 16.0583 24.5602C16.6843 24.899 17.3811 25.0865 18.0926 25.1075V25.1626C17.9701 25.3079 17.8507 25.4558 17.7343 25.6063C17.2421 26.2297 17.1411 26.3596 15.5582 26.6865C15.108 26.7796 13.9123 27.0264 13.8953 27.8677C13.8769 28.7865 15.3088 29.1684 15.4703 29.2091C16.0059 29.3468 16.5565 29.4182 17.1096 29.4217C18.3192 29.444 19.4921 29.0058 20.3908 28.1958C20.2566 30.6936 20.4245 33.1985 20.8909 35.6561C21.1064 36.4428 21.5728 37.1378 22.2193 37.6352C22.8658 38.1327 23.657 38.4056 24.4727 38.4123C24.8774 38.4111 25.2808 38.3671 25.6763 38.2811C26.756 38.1878 27.7669 37.7117 28.5264 36.9387C29.286 36.1656 29.7443 35.1465 29.8185 34.0653C30.0508 32.7187 30.4498 29.5044 30.6375 27.7798C31.1118 27.9101 31.6026 27.9707 32.0944 27.9596C33.227 27.9678 34.3503 27.7537 35.4006 27.3296C36.3351 26.8951 38.0256 25.832 37.7145 24.9067H37.7263ZM31.5707 13.253C31.5539 13.7403 31.503 14.2258 31.4184 14.706C31.3209 15.2702 31.2595 15.8401 31.2347 16.4122C31.2303 17.0577 31.2741 17.7026 31.3659 18.3416C31.6495 19.6494 31.545 21.0115 31.0654 22.2607C30.9635 22.08 30.8728 21.8933 30.7937 21.7016C30.7176 21.5165 30.5509 21.2186 30.3225 20.8078C29.43 19.2065 27.3379 15.4554 28.4089 13.925C28.7278 13.4696 29.5376 13.0063 31.5694 13.253H31.5707ZM29.1071 4.6312C30.4506 4.60374 31.7821 4.88839 32.9969 5.46277C34.2117 6.03715 35.2767 6.88559 36.108 7.94133C37.3877 9.57539 35.9768 17.0133 31.9014 23.4288L31.7781 23.2726L31.7269 23.2083C32.5365 21.6784 32.7721 19.9093 32.391 18.2208C32.3033 17.6334 32.2594 17.0403 32.2598 16.4463C32.2835 15.9156 32.341 15.3869 32.4317 14.8635C32.5498 14.2172 32.6039 13.5608 32.5931 12.9039C32.6145 12.8137 32.6203 12.7204 32.6102 12.6283C32.1753 10.8707 31.3133 9.24774 30.1007 7.90327C29.0111 6.61931 27.6483 5.59509 26.112 4.90552C27.0959 4.70036 28.0996 4.60615 29.1045 4.62464L29.1071 4.6312ZM12.4449 27.1051C11.622 28.0948 11.0524 27.9058 10.8699 27.8428C9.65195 27.4359 8.23707 24.8608 6.99151 20.7763C6.16448 18.1398 5.57586 15.4344 5.23276 12.6926C5.07526 9.54258 5.83914 7.34545 7.50339 6.1642C10.2111 4.24402 14.6644 5.39377 16.4533 5.97652C16.4271 6.00145 16.4008 6.02508 16.3759 6.05133C13.4398 9.01627 13.5094 14.0825 13.5173 14.3923C13.5173 14.5117 13.5264 14.681 13.5409 14.9173C13.6485 16.3286 13.6129 17.7472 13.4346 19.1514C13.3126 19.9554 13.3752 20.7766 13.6179 21.5528C13.8605 22.3289 14.2768 23.0396 14.835 23.631C14.9514 23.7517 15.073 23.8663 15.1999 23.9748C14.6972 24.513 13.6039 25.7047 12.4436 27.1051H12.4449ZM15.5818 22.9183C15.1292 22.4397 14.7917 21.8642 14.5949 21.2356C14.3982 20.607 14.3474 19.9417 14.4465 19.2905C14.6346 17.819 14.6729 16.3322 14.5607 14.853C14.5528 14.7283 14.5463 14.6193 14.5423 14.534C15.6418 13.7054 17.0062 13.3072 18.3788 13.4145C18.6946 13.486 18.9802 13.6541 19.1961 13.8954C19.4121 14.1368 19.5475 14.4393 19.5836 14.7611C20.4315 18.6841 19.6952 20.3182 19.1046 21.632C18.9825 21.9024 18.867 22.157 18.7699 22.4195L18.6938 22.6243C18.5051 23.0998 18.3439 23.5858 18.2108 24.0798C17.7173 24.0728 17.2304 23.9661 16.7793 23.766C16.3282 23.5659 15.9222 23.2767 15.5858 22.9156L15.5818 22.9183ZM15.7301 28.2076C15.4866 28.1477 15.2547 28.0479 15.0437 27.9123C15.2783 27.8121 15.5236 27.739 15.7748 27.6945C17.6359 27.3112 17.9233 27.0382 18.552 26.2441C18.6964 26.0617 18.8591 25.8504 19.0849 25.6023C19.4209 25.2256 19.5758 25.29 19.854 25.4055C19.986 25.4771 20.1017 25.5754 20.1939 25.6939C20.286 25.8125 20.3526 25.9489 20.3895 26.0945C20.4262 26.2002 20.4393 26.3127 20.428 26.424C20.4166 26.5353 20.3811 26.6428 20.3239 26.739C19.8151 27.4415 19.0951 27.9631 18.2689 28.2276C17.4427 28.492 16.5537 28.4855 15.7314 28.209L15.7301 28.2076ZM25.4741 37.2718C25.1058 37.3998 24.7146 37.4488 24.326 37.4154C23.9375 37.382 23.5604 37.2671 23.2193 37.0781C22.8781 36.8891 22.5807 36.6302 22.3464 36.3185C22.1121 36.0067 21.9462 35.6491 21.8595 35.2689C21.3973 32.2944 21.2653 29.2779 21.4658 26.2743C21.4671 26.2192 21.4596 26.1643 21.4434 26.1116C21.4297 26.0096 21.4086 25.9087 21.3804 25.8097C21.3027 25.5145 21.1611 25.2399 20.9656 25.0054C20.7701 24.7709 20.5255 24.5822 20.2491 24.4526C19.9268 24.2928 19.5601 24.2466 19.2083 24.3213C19.3326 23.8661 19.4825 23.4183 19.6571 22.98L19.7333 22.7739C19.8199 22.5416 19.9275 22.3014 20.0417 22.0468C20.6599 20.6726 21.5078 18.7891 20.5877 14.5366C20.5295 14.1749 20.3978 13.8289 20.2007 13.5201C20.0036 13.2112 19.7454 12.946 19.4419 12.7407C19.1384 12.5355 18.7961 12.3946 18.436 12.3267C18.076 12.2588 17.7058 12.2654 17.3484 12.3461C16.484 12.4582 15.6458 12.7207 14.8718 13.1218C14.7694 13.1743 14.6749 13.2241 14.5883 13.2727C14.6875 10.8878 15.5726 8.60274 17.1056 6.7732C17.7214 6.17061 18.4563 5.70335 19.2632 5.40138C20.0701 5.09942 20.9312 4.96941 21.7913 5.0197C23.2443 5.03232 24.6768 5.36361 25.9878 5.9902C27.2988 6.61679 28.4564 7.52343 29.3788 8.64614C30.2791 9.69736 30.9824 10.9023 31.4552 12.203C29.535 12.0075 28.2291 12.3868 27.5676 13.3331C26.1238 15.3911 28.3551 19.3863 29.4261 21.3065C29.6229 21.6583 29.7923 21.9628 29.8448 22.094C30.1276 22.7543 30.5086 23.368 30.9748 23.9145C31.0759 24.0457 31.1743 24.1625 31.2478 24.2701C30.6664 24.4381 29.6216 24.8253 29.7174 26.7639C29.6413 27.7351 29.0953 32.283 28.8171 33.8908C28.4509 36.0131 27.6699 36.8045 25.4728 37.2757L25.4741 37.2718ZM34.9793 26.3938C34.1713 26.7143 33.3137 26.892 32.4448 26.9188C31.8667 27.0039 31.2764 26.9281 30.7386 26.6996C30.6795 25.4934 31.1323 25.3674 31.6048 25.2335C31.6796 25.2125 31.7518 25.1915 31.8227 25.1679C31.869 25.2053 31.9172 25.2403 31.9671 25.2729C32.8058 25.8268 34.3033 25.8858 36.4164 25.4501H36.4401C36.0033 25.8385 35.5092 26.1572 34.9753 26.3951L34.9793 26.3938Z" fill="black"/>
</svg>
