<svg width="42" height="42" viewBox="0 0 42 42" fill="none" xmlns="http://www.w3.org/2000/svg">
<path d="M19.4281 18.2664C18.8927 18.5754 18.4611 19.0363 18.1877 19.5907C17.9143 20.1451 17.8114 20.7682 17.8921 21.381C17.9728 21.9939 18.2334 22.569 18.641 23.0338C19.0486 23.4985 19.5848 23.832 20.1819 23.9919C20.779 24.1519 21.4101 24.1312 21.9955 23.9325C22.5808 23.7338 23.0941 23.366 23.4703 22.8756C23.8466 22.3851 24.069 21.7941 24.1094 21.1773C24.1498 20.5605 24.0064 19.9455 23.6973 19.4102C23.2828 18.6924 22.6002 18.1687 21.7996 17.9542C20.9989 17.7397 20.1459 17.852 19.4281 18.2664ZM33.4363 21.6573C33.2311 21.4228 33.0146 21.1877 32.7868 20.9519C32.9459 20.7847 33.0999 20.6175 33.2488 20.4506C36.059 17.2931 37.245 14.1266 36.146 12.2229C35.0922 10.3976 31.9575 9.85369 28.0332 10.6167C27.6466 10.6924 27.2622 10.7777 26.8799 10.8727C26.8067 10.6204 26.7289 10.3695 26.6464 10.1202C25.3151 6.10824 23.1645 3.49862 20.9664 3.5C18.8587 3.50096 16.8216 5.94491 15.5221 9.72563C15.3942 10.0986 15.2759 10.4747 15.1672 10.8539C14.9116 10.7912 14.655 10.7332 14.3972 10.6801C10.2567 9.82998 6.92182 10.3899 5.82497 12.2946C4.77322 14.1212 5.87315 17.1068 8.49986 20.1208C8.76037 20.4191 9.02825 20.7106 9.3035 20.9954C8.97901 21.3297 8.67175 21.6637 8.38536 21.9959C5.82231 24.9674 4.78528 27.9042 5.83533 29.7229C6.91979 31.6015 10.2078 32.2155 14.2098 31.428C14.5341 31.3637 14.8567 31.2914 15.1774 31.211C15.2949 31.6212 15.4238 32.0277 15.5641 32.4308C16.8579 36.1356 18.8835 38.5009 20.9838 38.5001C23.1528 38.4988 25.3272 35.9576 26.6446 32.0973C26.7486 31.7922 26.8471 31.4754 26.9405 31.1492C27.3548 31.2523 27.7718 31.3438 28.1915 31.4236C32.0473 32.1532 35.1084 31.5794 36.1565 29.7594C37.2388 27.8794 36.1229 24.7263 33.4363 21.6573ZM7.12065 13.0407C7.79591 11.8682 10.5213 11.4108 14.0963 12.1447C14.3248 12.1917 14.5572 12.2442 14.7935 12.3022C14.4444 13.8462 14.1982 15.4116 14.0563 16.9881C12.7663 17.8956 11.5365 18.8856 10.3744 19.9519C10.1184 19.6872 9.86923 19.416 9.62688 19.1384C7.37626 16.5559 6.48682 14.1414 7.12065 13.0407ZM13.9223 23.0649C13.0288 22.3883 12.1985 21.6952 11.4448 20.9981C12.1979 20.3054 13.0288 19.6146 13.9205 18.9399C13.8885 19.6272 13.8726 20.3151 13.8729 21.0035C13.8733 21.6909 13.8898 22.378 13.9223 23.0649ZM13.9212 29.9609C12.4044 30.2982 10.8385 30.3535 9.30175 30.1239C8.88047 30.0911 8.47038 29.9723 8.09684 29.7747C7.7233 29.5772 7.39425 29.3051 7.13 28.9754C6.49288 27.8717 7.32558 25.5139 9.51756 22.9725C9.79314 22.654 10.0778 22.3438 10.3714 22.042C11.5336 23.1139 12.7655 24.1077 14.0589 25.0171C14.2027 26.6138 14.4519 28.1992 14.8047 29.7631C14.5119 29.8363 14.2174 29.9023 13.9212 29.9609ZM26.3482 15.8921C25.7613 15.5222 25.1671 15.1643 24.5657 14.8182C23.9738 14.4775 23.3748 14.1496 22.7688 13.8346C23.8065 13.3982 24.8266 13.0256 25.8114 12.7219C26.0435 13.7689 26.2227 14.827 26.3482 15.8921ZM16.9361 10.2116C18.0495 6.97212 19.6969 4.99569 20.9672 4.99515C22.3201 4.9945 24.0779 7.1271 25.2273 10.591C25.302 10.8168 25.3726 11.0439 25.4391 11.2722C23.929 11.7406 22.4516 12.3084 21.0165 12.9718C19.5874 12.3006 18.1147 11.7265 16.6083 11.2534C16.709 10.9035 16.8182 10.5563 16.9361 10.2116ZM16.2354 12.7033C17.2626 13.0266 18.2729 13.4016 19.2623 13.8268C18.0364 14.4594 16.8421 15.1486 15.6795 15.8942C15.8199 14.7777 16.0068 13.708 16.2354 12.7033ZM15.682 26.1094C16.2618 26.4806 16.85 26.838 17.4468 27.1817C18.0555 27.5322 18.6723 27.8679 19.2972 28.1889C18.3002 28.6288 17.2812 29.0172 16.2444 29.3526C16.0131 28.3339 15.8242 27.2454 15.682 26.1094ZM25.2295 31.6141C24.7639 33.0966 24.0295 34.4807 23.0628 35.6973C22.8239 36.0458 22.516 36.3417 22.1583 36.5665C21.8006 36.7914 21.4006 36.9405 20.983 37.0046C19.7086 37.0054 18.0821 35.1059 16.9756 31.9376C16.8453 31.563 16.7255 31.185 16.616 30.8036C18.1296 30.3153 19.6083 29.7249 21.0421 29.0366C22.4889 29.7044 23.9781 30.2764 25.4999 30.749C25.4168 31.0395 25.3267 31.3278 25.2295 31.6141ZM25.8634 29.2967C24.8673 28.9887 23.8324 28.6098 22.7797 28.1671C23.3731 27.8547 23.9709 27.5249 24.5729 27.1776C25.1907 26.8208 25.7928 26.4551 26.3791 26.0805C26.2623 27.1607 26.0902 28.2341 25.8634 29.2967ZM26.6444 20.997C26.6457 22.0598 26.6125 23.1217 26.5449 24.1828C25.6827 24.7663 24.7724 25.336 23.8254 25.8828C22.8822 26.4273 21.9477 26.9277 21.0311 27.3806C20.0664 26.9183 19.1204 26.4202 18.193 25.8861C17.2708 25.3553 16.3697 24.79 15.4898 24.1904C15.4094 23.1296 15.3689 22.0669 15.3682 21.0023C15.3675 19.9385 15.4074 18.8761 15.4874 17.8145C16.3493 17.2258 17.2529 16.6565 18.1872 16.1171C19.1258 15.5752 20.072 15.0769 21.0129 14.6253C21.9657 15.0883 22.9012 15.5845 23.8196 16.1139C24.7412 16.6436 25.6448 17.2028 26.5304 17.7916C26.6064 18.8584 26.6443 19.9269 26.6444 20.997ZM28.3187 12.0846C31.681 11.4305 34.2162 11.8705 34.8513 12.9704C35.5278 14.1423 34.5582 16.7303 32.1321 19.4566C31.998 19.607 31.8588 19.7581 31.7148 19.9098C30.5326 18.8412 29.2791 17.8543 27.9628 16.956C27.83 15.3967 27.5929 13.848 27.2533 12.3204C27.6153 12.2313 27.9704 12.1527 28.3187 12.0846ZM28.0914 18.8828C28.9792 19.531 29.8328 20.2248 30.6488 20.9615C29.8364 21.7103 28.9855 22.4161 28.0995 23.076C28.1266 22.3831 28.14 21.6899 28.1396 20.9963C28.1392 20.2916 28.1232 19.5871 28.0914 18.8828ZM34.8606 29.0131C34.2245 30.1176 31.7668 30.5782 28.4692 29.9543C28.0913 29.883 27.7035 29.7981 27.3059 29.6996C27.6374 28.1523 27.8639 26.5844 27.9839 25.0065C29.298 24.0925 30.5476 23.0892 31.7238 22.0037C31.9297 22.2176 32.1255 22.4304 32.3112 22.6422C33.3631 23.7859 34.1954 25.1134 34.7666 26.5585C34.9492 26.9395 35.0518 27.3539 35.068 27.7761C35.0842 28.1982 35.0136 28.6193 34.8606 29.0131Z" fill="#EE9639"/>
</svg>
