<svg width="52" height="32" viewBox="0 0 52 32" fill="none" xmlns="http://www.w3.org/2000/svg">
<path fill-rule="evenodd" clip-rule="evenodd" d="M45.1532 13.5338C45.1324 14.1181 45.0726 14.7004 44.9743 15.2769C46.9325 15.6251 48.7057 16.6344 49.9883 18.131C51.2709 19.6275 51.9823 21.5174 52 23.4747C52 25.7357 51.0869 27.9041 49.4616 29.5028C47.8363 31.1016 45.6319 31.9998 43.3333 31.9998H8.67071C6.43634 32.0157 4.28324 31.1764 2.66648 29.6592C1.04971 28.1421 0.095979 26.0661 0.00685693 23.8699C-0.0822652 21.6738 0.700207 19.5296 2.18889 17.8905C3.67757 16.2515 5.75582 15.246 7.98436 15.0867C7.98337 15.0643 7.97673 15.0433 7.97004 15.0221C7.96267 14.9988 7.95524 14.9753 7.95524 14.9496C7.95524 13.8218 8.1811 12.7051 8.6199 11.6632C9.05871 10.6213 9.70188 9.67465 10.5127 8.8773C11.3235 8.07995 12.286 7.44751 13.3453 7.01612C14.4046 6.58473 15.5399 6.36284 16.6864 6.3631C17.6338 6.39441 18.5693 6.58039 19.4547 6.91344C20.9376 4.3028 23.2599 2.25054 26.057 1.07892C28.8542 -0.0926915 31.9677 -0.317309 34.9087 0.440343C37.8497 1.198 40.4516 2.89501 42.3058 5.2649C44.16 7.63479 45.1616 10.5433 45.1532 13.5338ZM14.256 23.16C13.9893 22.9787 13.7013 22.744 13.392 22.456L12.384 23.752C12.6613 24.0187 12.9707 24.2693 13.312 24.504C13.664 24.728 14.0533 24.9093 14.48 25.048C14.9173 25.1867 15.3973 25.256 15.92 25.256C16.7627 25.256 17.424 25.0533 17.904 24.648C18.384 24.232 18.624 23.656 18.624 22.92C18.624 22.472 18.5227 22.1093 18.32 21.832C18.1173 21.5547 17.8453 21.3253 17.504 21.144C17.1733 20.952 16.8107 20.7813 16.416 20.632C16.096 20.4933 15.808 20.376 15.552 20.28C15.3067 20.184 15.1147 20.0773 14.976 19.96C14.848 19.832 14.784 19.688 14.784 19.528C14.784 19.3467 14.848 19.2133 14.976 19.128C15.1147 19.032 15.3013 18.984 15.536 18.984C15.888 18.984 16.2453 19.0747 16.608 19.256C16.9813 19.4373 17.3013 19.672 17.568 19.96L18.48 18.68C18.2453 18.4453 17.9733 18.2427 17.664 18.072C17.3547 17.8907 17.0187 17.7467 16.656 17.64C16.2933 17.5333 15.904 17.48 15.488 17.48C14.9973 17.48 14.5493 17.56 14.144 17.72C13.7493 17.8693 13.4347 18.0987 13.2 18.408C12.9653 18.7067 12.848 19.0747 12.848 19.512C12.848 19.9707 12.9493 20.3493 13.152 20.648C13.3653 20.936 13.632 21.1707 13.952 21.352C14.272 21.5227 14.6027 21.672 14.944 21.8C15.3067 21.9173 15.6053 22.0293 15.84 22.136C16.0747 22.2427 16.2507 22.3653 16.368 22.504C16.496 22.632 16.56 22.792 16.56 22.984C16.56 23.1973 16.4853 23.368 16.336 23.496C16.1867 23.6133 15.9733 23.672 15.696 23.672C15.4827 23.672 15.2533 23.6293 15.008 23.544C14.7733 23.4587 14.5227 23.3307 14.256 23.16ZM21.6873 23.272C21.5806 23.112 21.5273 22.9253 21.5273 22.712C21.5273 22.4987 21.5753 22.3227 21.6712 22.184C21.7673 22.0347 21.9166 21.9227 22.1192 21.848C22.3219 21.7627 22.5833 21.72 22.9032 21.72C23.2979 21.72 23.6712 21.7733 24.0233 21.88C24.1795 21.926 24.3288 21.9818 24.4713 22.0476V22.056C24.4713 22.408 24.3913 22.712 24.2313 22.968C24.0713 23.2133 23.8633 23.4053 23.6073 23.544C23.3512 23.672 23.0632 23.736 22.7432 23.736C22.5193 23.736 22.3113 23.6987 22.1192 23.624C21.9379 23.5387 21.7939 23.4213 21.6873 23.272ZM24.4713 23.999C24.4286 24.069 24.3806 24.136 24.3273 24.2C24.0713 24.52 23.7353 24.76 23.3193 24.92C22.9139 25.08 22.4872 25.16 22.0392 25.16C21.5806 25.16 21.1539 25.0693 20.7593 24.888C20.3646 24.7067 20.0446 24.4453 19.7992 24.104C19.5646 23.752 19.4473 23.3253 19.4473 22.824C19.4473 22.1093 19.6979 21.544 20.1992 21.128C20.7006 20.712 21.4099 20.504 22.3272 20.504C22.7966 20.504 23.2073 20.552 23.5592 20.648C23.9219 20.744 24.2259 20.8613 24.4713 21V20.216C24.4713 20.0133 24.4393 19.8427 24.3752 19.704C24.3113 19.5547 24.2099 19.432 24.0713 19.336C23.9433 19.24 23.7886 19.1707 23.6073 19.128C23.4259 19.0853 23.2232 19.064 22.9993 19.064C22.6579 19.064 22.3326 19.1013 22.0233 19.176C21.7139 19.2507 21.4473 19.3413 21.2232 19.448C20.9993 19.5547 20.8339 19.6453 20.7272 19.72L19.9592 18.312C20.3433 18.1093 20.8126 17.9173 21.3673 17.736C21.9219 17.544 22.5406 17.448 23.2233 17.448C23.8526 17.448 24.4126 17.5387 24.9032 17.72C25.3939 17.9013 25.7779 18.168 26.0553 18.52C26.3326 18.8613 26.4713 19.2827 26.4713 19.784V25H24.4713V23.999ZM30.031 23.272C29.9243 23.112 29.871 22.9253 29.871 22.712C29.871 22.4987 29.919 22.3227 30.015 22.184C30.111 22.0347 30.2603 21.9227 30.463 21.848C30.6657 21.7627 30.927 21.72 31.247 21.72C31.6417 21.72 32.015 21.7733 32.367 21.88C32.5233 21.926 32.6726 21.9818 32.815 22.0476V22.056C32.815 22.408 32.735 22.712 32.575 22.968C32.415 23.2133 32.207 23.4053 31.951 23.544C31.695 23.672 31.407 23.736 31.087 23.736C30.863 23.736 30.655 23.6987 30.463 23.624C30.2817 23.5387 30.1377 23.4213 30.031 23.272ZM32.815 23.999C32.7723 24.069 32.7243 24.136 32.671 24.2C32.415 24.52 32.079 24.76 31.663 24.92C31.2577 25.08 30.831 25.16 30.383 25.16C29.9243 25.16 29.4977 25.0693 29.103 24.888C28.7083 24.7067 28.3883 24.4453 28.143 24.104C27.9083 23.752 27.791 23.3253 27.791 22.824C27.791 22.1093 28.0417 21.544 28.543 21.128C29.0443 20.712 29.7537 20.504 30.671 20.504C31.1403 20.504 31.551 20.552 31.903 20.648C32.2657 20.744 32.5697 20.8613 32.815 21V20.216C32.815 20.0133 32.783 19.8427 32.719 19.704C32.655 19.5547 32.5537 19.432 32.415 19.336C32.287 19.24 32.1323 19.1707 31.951 19.128C31.7697 19.0853 31.567 19.064 31.343 19.064C31.0017 19.064 30.6763 19.1013 30.367 19.176C30.0577 19.2507 29.791 19.3413 29.567 19.448C29.343 19.5547 29.1777 19.6453 29.071 19.72L28.303 18.312C28.687 18.1093 29.1563 17.9173 29.711 17.736C30.2657 17.544 30.8843 17.448 31.567 17.448C32.1963 17.448 32.7563 17.5387 33.247 17.72C33.7377 17.9013 34.1217 18.168 34.399 18.52C34.6763 18.8613 34.815 19.2827 34.815 19.784V25H32.815V23.999ZM37.9748 23.16C37.7081 22.9787 37.4201 22.744 37.1107 22.456L36.1027 23.752C36.3801 24.0187 36.6894 24.2693 37.0308 24.504C37.3828 24.728 37.7721 24.9093 38.1987 25.048C38.6361 25.1867 39.1161 25.256 39.6388 25.256C40.4814 25.256 41.1427 25.0533 41.6227 24.648C42.1027 24.232 42.3428 23.656 42.3428 22.92C42.3428 22.472 42.2414 22.1093 42.0387 21.832C41.8361 21.5547 41.5641 21.3253 41.2228 21.144C40.8921 20.952 40.5294 20.7813 40.1348 20.632C39.8148 20.4933 39.5267 20.376 39.2708 20.28C39.0254 20.184 38.8334 20.0773 38.6948 19.96C38.5667 19.832 38.5028 19.688 38.5028 19.528C38.5028 19.3467 38.5667 19.2133 38.6948 19.128C38.8334 19.032 39.0201 18.984 39.2547 18.984C39.6068 18.984 39.9641 19.0747 40.3268 19.256C40.7001 19.4373 41.0201 19.672 41.2868 19.96L42.1987 18.68C41.9641 18.4453 41.6921 18.2427 41.3828 18.072C41.0734 17.8907 40.7374 17.7467 40.3748 17.64C40.0121 17.5333 39.6227 17.48 39.2067 17.48C38.7161 17.48 38.2681 17.56 37.8628 17.72C37.4681 17.8693 37.1534 18.0987 36.9188 18.408C36.6841 18.7067 36.5667 19.0747 36.5667 19.512C36.5667 19.9707 36.6681 20.3493 36.8708 20.648C37.0841 20.936 37.3507 21.1707 37.6707 21.352C37.9907 21.5227 38.3214 21.672 38.6628 21.8C39.0254 21.9173 39.3241 22.0293 39.5588 22.136C39.7934 22.2427 39.9694 22.3653 40.0868 22.504C40.2147 22.632 40.2788 22.792 40.2788 22.984C40.2788 23.1973 40.2041 23.368 40.0548 23.496C39.9054 23.6133 39.6921 23.672 39.4147 23.672C39.2014 23.672 38.9721 23.6293 38.7267 23.544C38.4921 23.4587 38.2414 23.3307 37.9748 23.16Z" fill="#EE9639"/>
</svg>
